<svg xmlns="http://www.w3.org/2000/svg" viewBox="0 0 511.999 511.999"><path d="M496.89 15.011c-20.015-20.016-52.582-20.014-72.596 0L286.76 152.543l-2.945-2.945c-25.577-25.577-66.359-28.076-94.866-5.809L5.968 286.702a15.267 15.267 0 00-1.398 22.83l197.996 197.996a15.27 15.27 0 0022.829-1.397L368.308 323.15c22.264-28.506 19.766-69.29-5.81-94.867l-3.14-3.14L496.89 87.608c20.015-20.015 20.015-52.582 0-72.597zM211.954 473.727l-44.515-44.515 54.73-60.219c5.671-6.241 5.21-15.897-1.03-21.569-6.241-5.671-15.898-5.211-21.569 1.03l-53.749 59.14-41.317-41.317 59.14-53.749c6.24-5.672 6.701-15.329 1.03-21.569-5.673-6.239-15.327-6.702-21.569-1.03l-60.219 54.73-44.515-44.515 144.466-112.832 141.95 141.95-112.833 144.465zM344.24 304.35l-.517.663-136.639-136.64.663-.517c16.367-12.785 39.788-11.35 54.474 3.336l13.741 13.741 51.004 51.004 13.937 13.937c14.688 14.687 16.122 38.107 3.337 54.476zM475.297 66.014L337.764 203.547l-29.411-29.411L445.886 36.604c8.109-8.109 21.303-8.107 29.41 0 8.109 8.109 8.109 21.301.001 29.41z"/></svg>