<svg width="395" height="397" xmlns="http://www.w3.org/2000/svg">

 <g>
  <title>background</title>
  <rect fill="none" id="canvas_background" height="399" width="397" y="-1" x="-1"/>
 </g>
 <g>
  <title>Layer 1</title>
  <g id="svgg">
   <path fill-rule="evenodd" fill="#000000" d="m211.94,16.148c-13.075,14.473 -8.217,21.883 10.736,16.373c13.02,-3.785 14.397,-7.906 5.983,-17.904c-5.41,-6.431 -9.897,-6.02 -16.719,1.531m-119.239,-1.615c-18.74,11.427 -18.899,38.384 -0.347,58.87c9.855,10.882 9.694,13.931 -0.948,17.925c-18.925,7.102 -17.786,18.57 1.851,18.644c22.249,0.084 37.688,23.821 26.179,40.252c-8.071,11.524 -48.499,11.873 -64.461,0.556c-21.641,-15.342 -38.351,-6.613 -38.465,20.095c-0.146,34.105 21.355,40.177 66.637,18.817c26.032,-12.279 34.041,-11.973 34.041,1.301c0,6.7 -5.182,12.485 -17.414,19.443c-11.626,6.613 -15.4,12.171 -15.393,22.668c0.014,21.447 19.056,28.848 24.698,9.6c2.784,-9.499 4.78,-12.705 11.578,-18.596c8.254,-7.153 9.509,-5.04 4.716,7.942l-4.106,11.12l4.297,3.696c5.78,4.972 7.175,4.722 14.28,-2.553c25.303,-25.913 43.963,34.755 22.5,73.154c-20.828,37.263 -21.851,41.504 -13.178,54.61c10.556,15.952 25.359,19.765 40.343,10.392c18.769,-11.74 20.586,-21.301 11.258,-59.25c-10.098,-41.088 -9.196,-78.667 1.805,-75.176c2.809,0.892 8.366,9.827 8.366,13.451c0,4.414 7.027,19.194 10.076,21.191c8.948,5.863 16.486,-4.158 16.486,-21.916c0,-18.264 9.805,-12.438 11.748,6.981c2.813,28.106 17.712,41.165 31.377,27.5c9.583,-9.583 6.602,-21.285 -10.314,-40.481c-10.718,-12.162 -11.938,-17.409 -5.538,-23.809c12.912,-12.913 48.28,19.32 56.173,51.194c6.205,25.059 9.985,29.66 25.158,30.627c44.517,2.834 44.345,-55.431 -0.191,-64.767c-17.038,-3.571 -35.484,-15.218 -52.713,-33.28c-12.738,-13.354 -7.696,-16.2 12.248,-6.912c15.551,7.241 27.364,3.096 27.365,-9.603c0,-12.143 -10.69,-18.658 -26.853,-16.365c-19.627,2.783 -26.273,-0.432 -26.272,-12.71c0,-15.887 3.461,-18.101 29.687,-18.984c24.867,-0.838 30.915,-4.912 37.499,-25.258c6.624,-20.466 -25.29,-31.416 -41.246,-14.152c-18.367,19.871 -33.753,20.275 -33.753,0.884c0,-7.469 4.946,-11.888 19.145,-17.104c30.003,-11.021 43.323,-25.147 43.574,-46.21c0.233,-19.491 -18.524,-31.064 -37.061,-22.864c-13.995,6.191 -17.934,12.457 -21.771,34.635c-8.203,47.417 -43.823,63.279 -40.502,18.036c1.225,-16.696 -1.028,-23.25 -11.004,-32.009c-14.575,-12.798 -25.171,3.037 -15.678,23.43c7.769,16.687 2.128,32.855 -10.534,30.196c-17.189,-3.61 -43.658,-25.013 -54.06,-43.713c-2.869,-5.156 -8.489,-15.299 -12.49,-22.539c-11.137,-20.153 -25.401,-27.125 -38.793,-18.959m272.152,23.804c-2.752,3.27 -3.938,6.203 -3.478,8.605c0.522,2.734 -0.811,5.006 -5.339,9.097c-7.399,6.684 -7.668,8.81 -0.958,7.566c19.586,-3.631 33.337,-19.346 23.618,-26.992c-5.688,-4.473 -8.973,-4.064 -13.843,1.724m-12.594,33.286c-18.036,5.699 -46.416,29.59 -29.993,25.25c18.516,-4.894 19.274,-4.884 25.618,0.345c15.801,13.025 36.244,-7.442 23.071,-23.098c-4.476,-5.319 -8.192,-5.816 -18.696,-2.497m-317.103,16.681c-7.916,4.33 -9.382,12.208 -3.045,16.361c7.21,4.724 44.452,-1.26 44.452,-7.143c-0.001,-6.802 -32.569,-14.052 -41.407,-9.218m306.09,109.768c-2.187,5.699 19.306,19.28 32.973,20.834c11.864,1.35 19.051,-8.557 10.874,-14.989c-7.718,-6.071 -42.006,-10.642 -43.847,-5.845m-309.667,26.758c-21.326,10.669 -26.358,22.717 -14.633,35.042c11.07,11.637 25.089,2.037 25.207,-17.262c0.031,-4.989 1.071,-6.413 9.41,-12.889c11.674,-9.066 11.701,-10.408 0.209,-10.408c-7.365,0 -11.33,1.083 -20.193,5.517m38.382,20.356c-8.385,4.55 -10.032,14.065 -3.344,19.326c5.705,4.487 10.924,4.062 16.316,-1.329c10.439,-10.439 -0.06,-25.005 -12.972,-17.997m54.136,12.28c-22.79,9.924 -33.582,47.902 -16.248,57.179c16.186,8.662 37.037,-12.295 27.188,-27.326c-2.313,-3.531 -2.218,-4.119 1.563,-9.683c8.761,-12.894 0.69,-25.914 -12.503,-20.17m141.374,55.762c-8.023,8.588 -3.562,27.96 6.438,27.96c9.833,0 14.367,-20.215 6.336,-28.246c-5.743,-5.743 -7.173,-5.711 -12.774,0.286m-290.471,-314.228l20,0l0,20l-20,0l0,-20zm430,0l20,0l0,20l-20,0l0,-20z" id="path0"/>
  </g>
 </g>
</svg>