<svg width="395" height="397" xmlns="http://www.w3.org/2000/svg"><path fill="none" d="M-1-1h397v399H-1z"/><g><path fill-rule="evenodd" fill="#000000" d="M211.94 16.148c-13.075 14.473-8.217 21.883 10.736 16.373 13.02-3.785 14.397-7.906 5.983-17.904-5.41-6.431-9.897-6.02-16.719 1.531M92.701 14.533c-18.74 11.427-18.899 38.384-.347 58.87 9.855 10.882 9.694 13.931-.948 17.925-18.925 7.102-17.786 18.57 1.851 18.644 22.249.084 37.688 23.821 26.179 40.252-8.071 11.524-48.499 11.873-64.461.556-21.641-15.342-38.351-6.613-38.465 20.095-.146 34.105 21.355 40.177 66.637 18.817 26.032-12.279 34.041-11.973 34.041 1.301 0 6.7-5.182 12.485-17.414 19.443-11.626 6.613-15.4 12.171-15.393 22.668.014 21.447 19.056 28.848 24.698 9.6 2.784-9.499 4.78-12.705 11.578-18.596 8.254-7.153 9.509-5.04 4.716 7.942l-4.106 11.12 4.297 3.696c5.78 4.972 7.175 4.722 14.28-2.553 25.303-25.913 43.963 34.755 22.5 73.154-20.828 37.263-21.851 41.504-13.178 54.61 10.556 15.952 25.359 19.765 40.343 10.392 18.769-11.74 20.586-21.301 11.258-59.25-10.098-41.088-9.196-78.667 1.805-75.176 2.809.892 8.366 9.827 8.366 13.451 0 4.414 7.027 19.194 10.076 21.191 8.948 5.863 16.486-4.158 16.486-21.916 0-18.264 9.805-12.438 11.748 6.981 2.813 28.106 17.712 41.165 31.377 27.5 9.583-9.583 6.602-21.285-10.314-40.481-10.718-12.162-11.938-17.409-5.538-23.809 12.912-12.913 48.28 19.32 56.173 51.194 6.205 25.059 9.985 29.66 25.158 30.627 44.517 2.834 44.345-55.431-.191-64.767-17.038-3.571-35.484-15.218-52.713-33.28-12.738-13.354-7.696-16.2 12.248-6.912 15.551 7.241 27.364 3.096 27.365-9.603 0-12.143-10.69-18.658-26.853-16.365-19.627 2.783-26.273-.432-26.272-12.71 0-15.887 3.461-18.101 29.687-18.984 24.867-.838 30.915-4.912 37.499-25.258 6.624-20.466-25.29-31.416-41.246-14.152-18.367 19.871-33.753 20.275-33.753.884 0-7.469 4.946-11.888 19.145-17.104 30.003-11.021 43.323-25.147 43.574-46.21.233-19.491-18.524-31.064-37.061-22.864-13.995 6.191-17.934 12.457-21.771 34.635-8.203 47.417-43.823 63.279-40.502 18.036 1.225-16.696-1.028-23.25-11.004-32.009-14.575-12.798-25.171 3.037-15.678 23.43 7.769 16.687 2.128 32.855-10.534 30.196-17.189-3.61-43.658-25.013-54.06-43.713-2.869-5.156-8.489-15.299-12.49-22.539-11.137-20.153-25.401-27.125-38.793-18.959m272.152 23.804c-2.752 3.27-3.938 6.203-3.478 8.605.522 2.734-.811 5.006-5.339 9.097-7.399 6.684-7.668 8.81-.958 7.566 19.586-3.631 33.337-19.346 23.618-26.992-5.688-4.473-8.973-4.064-13.843 1.724m-12.594 33.286c-18.036 5.699-46.416 29.59-29.993 25.25 18.516-4.894 19.274-4.884 25.618.345 15.801 13.025 36.244-7.442 23.071-23.098-4.476-5.319-8.192-5.816-18.696-2.497M35.156 88.304c-7.916 4.33-9.382 12.208-3.045 16.361 7.21 4.724 44.452-1.26 44.452-7.143-.001-6.802-32.569-14.052-41.407-9.218m306.09 109.768c-2.187 5.699 19.306 19.28 32.973 20.834 11.864 1.35 19.051-8.557 10.874-14.989-7.718-6.071-42.006-10.642-43.847-5.845M31.579 224.83c-21.326 10.669-26.358 22.717-14.633 35.042 11.07 11.637 25.089 2.037 25.207-17.262.031-4.989 1.071-6.413 9.41-12.889 11.674-9.066 11.701-10.408.209-10.408-7.365 0-11.33 1.083-20.193 5.517m38.382 20.356c-8.385 4.55-10.032 14.065-3.344 19.326 5.705 4.487 10.924 4.062 16.316-1.329 10.439-10.439-.06-25.005-12.972-17.997m54.136 12.28c-22.79 9.924-33.582 47.902-16.248 57.179 16.186 8.662 37.037-12.295 27.188-27.326-2.313-3.531-2.218-4.119 1.563-9.683 8.761-12.894.69-25.914-12.503-20.17m141.374 55.762c-8.023 8.588-3.562 27.96 6.438 27.96 9.833 0 14.367-20.215 6.336-28.246-5.743-5.743-7.173-5.711-12.774.286M-25-1h20v20h-20V-1zm430 0h20v20h-20V-1z"/></g></svg>