<svg width="1291" height="512" xmlns="http://www.w3.org/2000/svg">

 <g>
  <title>background</title>
  <rect fill="none" id="canvas_background" height="514" width="1293" y="-1" x="-1"/>
 </g>
 <g>
  <title>Layer 1</title>
  <polygon id="svg_2" points="525.700439453125,62.6296751499176 107.70046997070312,512.6296293735504 964.7003784179688,512.6296293735504 " fill="#0a0c0d"/>
  <polygon id="svg_3" points="525.700439453125,62.6296751499176 441.60040283203125,512.6296293735504 964.7003784179688,512.6296293735504 " fill="#383c66"/>
  <polygon stroke="null" id="svg_4" points="-236.29889249801636,512.6296293735504 88.37881469726562,274.6297209262848 384.700439453125,512.6296293735504 " fill="#0c0f10"/>
  <polygon stroke="null" id="svg_5" points="45.269805908203125,512.6296293735504 88.49581909179688,274.6297209262848 384.700439453125,512.6296293735504 " fill="#3e496f"/>
  <polygon id="svg_6" points="771.7005004882812,158.62970566749573 1120.7003784179688,512.6296293735504 444.70037841796875,512.6296293735504 " fill="#0e1113"/>
  <polygon id="svg_7" points="771.7005004882812,158.62970566749573 1120.7003784179688,512.6296293735504 730.7005004882812,512.6296293735504 " fill="#475677"/>
  <polygon id="svg_8" points="209.70040893554688,307.6297209262848 454.70037841796875,512.6296293735504 -64.29953002929688,512.6296293735504 " fill="#101315"/>
  <polygon id="svg_9" points="155.70046997070312,512.6296293735504 209.70040893554688,307.6297209262848 454.70037841796875,512.6296293735504 " fill="#52637e"/>
  <polygon id="svg_10" points="1278.7002563476562,512.6296293735504 969.7003784179688,244.62969040870667 664.7005004882812,512.6296293735504 " fill="#121518"/>
  <polygon id="svg_11" points="1278.7002563476562,512.6296293735504 969.7003784179688,244.62969040870667 933.7003784179688,512.6296293735504 " fill="#5e7085"/>
  <polygon id="svg_12" points="778.7005004882812,512.6296293735504 539.7005004882812,299.6297209262848 293.700439453125,512.6296293735504 " fill="#14171a"/>
  <polygon id="svg_13" points="511.700439453125,512.6296293735504 778.7005004882812,512.6296293735504 539.7005004882812,299.6297209262848 " fill="#6d7d8c"/>
 </g>
</svg>