<svg width="1291" height="512" xmlns="http://www.w3.org/2000/svg"><path fill="none" d="M-1-1h1293v514H-1z"/><g><path fill="#0a0c0d" d="M525.7 62.63l-418 450h857z"/><path fill="#383c66" d="M525.7 62.63l-84.1 450h523.1z"/><path stroke="null" fill="#0c0f10" d="M-236.299 512.63l324.678-238 296.321 238z"/><path stroke="null" fill="#3e496f" d="M45.27 512.63l43.226-238 296.204 238z"/><path fill="#0e1113" d="M771.7 158.63l349 354h-676z"/><path fill="#475677" d="M771.7 158.63l349 354h-390z"/><path fill="#101315" d="M209.7 307.63l245 205h-519z"/><path fill="#52637e" d="M155.7 512.63l54-205 245 205z"/><path fill="#121518" d="M1278.7 512.63l-309-268-305 268z"/><path fill="#5e7085" d="M1278.7 512.63l-309-268-36 268z"/><path fill="#14171a" d="M778.7 512.63l-239-213-246 213z"/><path fill="#6d7d8c" d="M511.7 512.63h267l-239-213z"/></g></svg>